<!DOCTYPE svg PUBLIC "-//W3C//DTD SVG 1.1//EN" "http://www.w3.org/Graphics/SVG/1.1/DTD/svg11.dtd">
<svg version="1.1" xmlns="http://www.w3.org/2000/svg"
     xmlns:xlink="http://www.w3.org/1999/xlink" x="0px" y="0px"
     viewBox="0 0 10000 10000" enable-background="new 0 0 10000 10000"
     xml:space="preserve">
<metadata> Svg Vector Icons : http://www.onlinewebfonts.com/icon </metadata>
<g fill="#00BB9C">
    <path d="M500,10C229.4,10,10,229.4,10,500c0,270.7,219.4,490,490,490c270.6,0,490-219.3,490-490C990,229.4,770.6,10,500,10z M453.2,816c-12.2,12.2-32.2,12.2-44.4,0L135.6,542.6c-12.2-12.3-12.2-32.2,0-44.4l66.5-66.6c12.2-12.2,32.2-12.2,44.4,0L408.8,594c12.2,12.2,32.2,12.2,44.4,0l316.6-316.4c12.3-12.2,32.2-12.2,44.4,0l66.6,66.5c12.2,12.2,12.2,32.1,0,44.3L453.2,816z"/></g>
</svg>